<svg width="18" height="13" viewBox="0 0 18 13" fill="none" xmlns="http://www.w3.org/2000/svg">
<path d="M12.088 6.35673L17.5513 1.45733C17.8055 1.22623 17.8287 0.83335 17.5975 0.574513C17.3664 0.320299 16.9736 0.297189 16.7147 0.528293L9.18075 7.29039L7.71093 5.97772C7.7063 5.9731 7.70168 5.96848 7.70168 5.96386C7.66933 5.9315 7.63697 5.90377 7.59999 5.87604L1.61903 0.523671C1.36019 0.292567 0.967314 0.315677 0.73621 0.574513C0.505106 0.83335 0.528217 1.22623 0.787053 1.45733L6.31506 6.39833L0.810163 11.552C0.560571 11.7877 0.546705 12.1806 0.782431 12.4348C0.907227 12.5642 1.07362 12.6335 1.24002 12.6335C1.39255 12.6335 1.54507 12.5781 1.66525 12.4671L7.25334 7.23955L8.76938 8.59382C8.88955 8.70013 9.03746 8.75097 9.18537 8.75097C9.33327 8.75097 9.4858 8.69551 9.60135 8.5892L11.159 7.19333L16.7147 12.4717C16.8349 12.5873 16.9921 12.6428 17.1446 12.6428C17.311 12.6428 17.4728 12.5781 17.5975 12.4486C17.8333 12.199 17.824 11.8015 17.5744 11.5658L12.088 6.35673Z" fill="#005FA3"/>
</svg>
